# xmcd
#
# Track frame offsets: 
#        150
#        24440
#        38435
#        55500
#        69675
#        88095
#        105120
#        124933
#        140935
#        156975
#
# Disc length: 2399 seconds
#
# Revision: 11
# Processed by: cddbd v1.5.2PL0 Copyright (c) Steve Scherf et al.
# Submitted via: ExactAudioCopy v1.3
#
DISCID=7f095d0a
DTITLE=Accept - Metal Heart 
DYEAR=1985
DGENRE=Heavy Metal
TTITLE0=Metal Heart
TTITLE1=Midnight Mover
TTITLE2=Up To The Limit
TTITLE3=Wrong Is Right
TTITLE4=Screaming For A Love-Bite
TTITLE5=Too High To Get It Right
TTITLE6=Dogs On Leads
TTITLE7=Teach Us To Survive
TTITLE8=Living For Tonite
TTITLE9=Bound To Fail
EXTD=
EXTT0=
EXTT1=
EXTT2=
EXTT3=
EXTT4=
EXTT5=
EXTT6=
EXTT7=
EXTT8=
EXTT9=
PLAYORDER=
